<svg xmlns="http://www.w3.org/2000/svg" viewBox="-1.2 -21.4 17.4 24.8">
  <path d="M 1 0 Q -2 1 0 3 L 15 3 Q 17 1 14 0 Z M 0 0 L 14 0 Q 15 -1 14 -1 L 1 -1 Q 0 -1 1 0 M 1 -1 Q 0 -3 3 -3 L 12 -3 Q 15 -3 14 -1 Z M 2 -3 Q 2 -4 3 -4 L 12 -4 Q 13 -4 13 -3 Z M 3 -4 Q 0 -4 3 -5 L 12 -5 Q 15 -4 12 -4 Z M 2 -5 Q 6 -10 3 -13 L 12 -13 Q 9 -10 13 -5 Z M 3 -13 Q 0 -15 3 -15 L 12 -15 Q 15 -15 12 -13 Z Z M 3 -15 Q 1 -16 1 -17 L 0 -21 L 2 -21 L 2 -19 L 3 -19 L 3 -21 L 5 -21 L 5 -19 L 6 -19 L 6 -21 L 9 -21 L 9 -19 L 10 -19 L 10 -21 L 12 -21 L 12 -19 L 13 -19 L 13 -21 L 15 -21 L 14 -17 Q 14 -16 12 -15 Z" stroke="#888888" stroke-width="0.4" fill="#111111"/>
</svg>