<svg xmlns="http://www.w3.org/2000/svg" viewBox="-1.73333 -49.4 19.47 52.8">
  <path d="M 1 0 Q -2 1 0 3 L 15 3 Q 17 1 14 0 Z M 0 0 L 14 0 Q 15 -1 14 -1 L 1 -1 Q 0 -1 1 0 M 1 -1 Q 0 -3 3 -4 L 12 -4 Q 15 -3 14 -1 Z M 3 -4 Q 2 -4 4 -6 L 11 -6 Q 13 -4 12 -4 Z M 4 -6 Q 0 -7 5 -7 L 10 -7 Q 15 -7 11 -6 Z M 5 -7 Q 7 -12 5 -22 L 10 -22 Q 8 -12 10 -7 Z M 5 -22 Q -3 -23 6 -24 L 9 -24 Q 18 -23 10 -22 z M 6 -24 Q -1 -24 4 -26 L 11 -26 Q 16 -24 9 -24 Z M 4 -26 Q 3 -30 -1 -34 Q -2 -36 0 -36 L 16 -36 Q 18 -36 17 -34 Q 12 -30 11 -26 Z M 3 -36 Q 1 -37 5 -38 L 11 -38 Q 15 -37 13 -36 Z M 5 -39 Q 6 -39 6 -40 L 10 -40 Q 10 -39 11 -39 L 11 -38 L 5 -38 Z M 7 -40 L 7 -41 Q 7 -44 6 -43 L 3 -43 Q 3 -44 3 -45 L 3 -44 Q 3 -45 4 -45 L 6 -45 Q 8 -45 7 -47 L 7 -48 Q 6 -49 8 -49 L 8 -49 Q 10 -49 9 -48 L 9 -47 Q 8 -45 10 -45 L 12 -45 Q 13 -45 13 -44 L 13 -44 Q 13 -44 13 -43 L 10 -43 Q 9 -44 9 -41 L 9 -40 Z" stroke="#999999" stroke-width="0.4" fill="#eeeeee"/>
</svg>