<svg xmlns="http://www.w3.org/2000/svg" viewBox="-2.4 -42.4 19.8 45.8">
  <path d="M 1 0 Q -2 1 0 3 L 15 3 Q 17 1 14 0 Z M 0 0 L 14 0 Q 15 -1 14 -1 L 1 -1 Q 0 -1 1 0 M 1 -1 Q 0 -3 3 -4 L 12 -4 Q 15 -3 14 -1 Z M 3 -4 Q 2 -4 4 -6 L 11 -6 Q 13 -4 12 -4 Z M 4 -6 Q 0 -7 5 -7 L 10 -7 Q 15 -7 11 -6 Z M 5 -7 Q 7 -12 5 -22 L 10 -22 Q 8 -12 10 -7 Z M 5 -22 Q -3 -23 6 -24 L 9 -24 Q 18 -23 10 -22 z M 6 -24 Q -1 -24 4 -26 L 11 -26 Q 16 -24 9 -24 Z M 4 -26 Q 3 -30 -2 -34 Q 2 -34 3 -32 C 3 -39 2 -36 6 -32 C 9 -38 6 -38 9 -32 C 13 -36 12 -39 12 -32 Q 13 -34 17 -34 Q 12 -30 11 -26 M 2 -33 C 2 -38 13 -38 13 -33 A 1 1 0 0 0 2 -33 M 8 -39 A 1 1 0 0 0 8 -42 L 7 -42 A 1 1 0 0 0 7 -39 Z" stroke="#888888" stroke-width="0.4" fill="#111111"/>
</svg>