<svg xmlns="http://www.w3.org/2000/svg" viewBox="-0.8 -25.5 16.6 28.5">
  <path d="M 1 0 Q -2 1 0 3 L 15 3 Q 17 1 14 0 Z M 0 0 L 14 0 Q 15 -1 14 -1 L 1 -1 Q 0 -1 1 0 M 1 -1 Q 0 -3 3 -3 L 12 -3 Q 15 -3 14 -1 Z M 3 -3 Q 2 -6 6 -6 L 9 -6 Q 13 -6 12 -3 Z M 6 -6 Q 2 -6 5 -7 L 10 -7 Q 13 -6 9 -6 Z M 5 -7 Q 7 -10 6 -15 L 9 -15 Q 8 -10 10 -7 Z M 6 -15 Q 0 -15 6 -17 L 9 -17 Q 15 -15 9 -15 Z M 6 -17 Q 4 -18 6 -18 L 9 -18 Q 11 -18 9 -17 Z M 4 -21 C 4 -17 11 -17 11 -21 C 11 -27 4 -27 4 -21" stroke="#888888" stroke-width="0.4" fill="#111111"/>
</svg>